<?xml version="1.0" encoding="UTF-8" standalone="no"?>
<!-- Created with Inkscape (http://www.inkscape.org/) -->

<svg
   xmlns:dc="http://purl.org/dc/elements/1.1/"
   xmlns:cc="http://creativecommons.org/ns#"
   xmlns:rdf="http://www.w3.org/1999/02/22-rdf-syntax-ns#"
   xmlns:svg="http://www.w3.org/2000/svg"
   xmlns="http://www.w3.org/2000/svg"
   xmlns:sodipodi="http://sodipodi.sourceforge.net/DTD/sodipodi-0.dtd"
   xmlns:inkscape="http://www.inkscape.org/namespaces/inkscape"
   width="210mm"
   height="297mm"
   viewBox="0 0 210 297"
   version="1.1"
   id="svg6705"
   inkscape:version="0.92.2 5c3e80d, 2017-08-06"
   sodipodi:docname="KC-AWS-logo.svg">
  <defs
     id="defs6699" />
  <sodipodi:namedview
     id="base"
     pagecolor="#ffffff"
     bordercolor="#666666"
     borderopacity="1.0"
     inkscape:pageopacity="0.0"
     inkscape:pageshadow="2"
     inkscape:zoom="0.7"
     inkscape:cx="466.14707"
     inkscape:cy="662.77708"
     inkscape:document-units="mm"
     inkscape:current-layer="layer1"
     showgrid="false"
     inkscape:window-width="2560"
     inkscape:window-height="964"
     inkscape:window-x="0"
     inkscape:window-y="1"
     inkscape:window-maximized="1" />
  <metadata
     id="metadata6702">
    <rdf:RDF>
      <cc:Work
         rdf:about="">
        <dc:format>image/svg+xml</dc:format>
        <dc:type
           rdf:resource="http://purl.org/dc/dcmitype/StillImage" />
        <dc:title />
      </cc:Work>
    </rdf:RDF>
  </metadata>
  <g
     inkscape:groupmode="layer"
     id="layer5"
     inkscape:label="Foreground"
     style="display:inline">
    <path
       style="display:inline;fill:#19263c;fill-opacity:1;stroke-width:0.35277778"
       d="m 99.822911,230.91774 c -11.30628,-1.22657 -23.5892,-4.92893 -33.51389,-10.10187 -9.63628,-5.02262 -20.03115,-12.81187 -21.56338,-16.15824 -0.84503,-1.84551 -0.84094,-4.44093 0.01,-6.09947 1.44776,-2.82309 3.62467,-3.9547 7.60772,-3.9547 1.52729,0 2.65717,-0.14926 2.65717,-0.351 0,-0.19305 -0.80064,-1.34399 -1.7792,-2.55764 -0.97856,-1.21365 -2.151,-3.00039 -2.60541,-3.97053 -2.86627,-6.11923 -1.83386,-13.68794 2.52901,-18.5405 0.82655,-0.91932 1.50282,-1.82192 1.50282,-2.00577 0,-0.18384 -0.41176,-0.79552 -0.91502,-1.35927 -1.62213,-1.81711 -2.24397,-3.61142 -2.25027,-6.49307 -0.007,-3.42767 0.46253,-5.03138 1.96057,-6.68953 l 1.21777,-1.34793 0.0817,-4.71252 c 0.0784,-4.52438 0.0352,-4.84632 -1.08328,-8.06391 -2.15559,-6.20131 -10.07158,-20.864 -16.36968,-30.32136 -1.42825,-2.14469 -1.64434,-2.31553 -3.75859,-2.97145 -7.81064,-2.42315 -10.13643,-12.15425 -4.25554,-17.805133 2.15711,-2.072743 4.7557,-2.989732 7.90987,-2.791228 4.11467,0.258953 7.15861,2.38112 8.94129,6.233661 0.78467,1.69576 0.90315,2.40108 0.849,5.05416 l -0.0629,3.083384 2.72105,2.767706 c 1.49657,1.52224 3.48089,3.28164 4.40959,3.90978 1.95189,1.32018 4.60847,2.31232 5.38926,2.0127 2.13706,-0.82006 2.412,-9.807716 0.57767,-18.8835 l -0.59992,-2.968226 -1.69831,-0.912329 c -2.81157,-1.510372 -4.35274,-3.046226 -5.60087,-5.581537 -1.04527,-2.123239 -1.16749,-2.686987 -1.16749,-5.384959 0,-2.694758 0.12282,-3.262927 1.16134,-5.372471 3.66573,-7.446148 13.52606,-9.062868 19.40692,-3.181999 2.40155,2.401543 3.40536,4.923173 3.40536,8.55447 0,2.530036 -0.15163,3.32492 -0.97033,5.086805 l -0.97033,2.088198 1.98272,3.322517 c 4.07525,6.829021 9.88875,13.569765 12.95263,15.018515 2.4983,1.181306 2.99184,1.141376 4.41762,-0.35743 2.66899,-2.805694 5.55229,-9.661144 7.826749,-18.609229 0.743,-2.92306 1.4506,-6.029029 1.57246,-6.902153 0.21385,-1.53231 0.1657,-1.641749 -1.38504,-3.147895 -6.406519,-6.222308 -4.713359,-16.940246 3.31025,-20.954293 2.89123,-1.446422 5.59532,-1.860517 8.40728,-1.287466 4.19435,0.854769 7.54386,3.489616 9.40458,7.397988 0.98287,2.064493 1.09168,2.627108 1.09168,5.644444 0,4.052758 -0.81918,6.133725 -3.61793,9.190571 l -1.79325,1.958626 0.47757,2.274707 c 2.19569,10.458173 5.89304,19.901866 9.25655,23.64291 1.27196,1.41473 1.77979,1.738746 2.72511,1.738746 3.41171,0 10.34713,-7.46617 15.50816,-16.694956 l 1.26606,-2.26392 -0.86998,-1.877748 c -1.21961,-2.632409 -1.45037,-5.019266 -0.75153,-7.773443 1.99173,-7.849596 10.50733,-11.617569 17.60964,-7.791898 2.29492,1.236165 4.61088,3.890064 5.53679,6.344718 1.01496,2.690725 0.84442,6.829178 -0.38817,9.419742 -1.05093,2.208776 -3.53131,4.724685 -5.68394,5.765376 -0.90593,0.437974 -1.80187,0.986808 -1.99098,1.219634 -0.60046,0.739256 -1.49743,6.956475 -1.71904,11.915179 -0.23491,5.256396 0.27744,9.398836 1.20659,9.755386 1.23221,0.47284 6.29324,-2.80226 10.58878,-6.85222 l 2.55763,-2.411426 V 96.14768 c 0,-3.34137 0.71167,-5.47327 2.50849,-7.514566 3.10775,-3.53059 8.25136,-4.606544 12.36482,-2.586511 3.7918,1.862081 6.05576,5.371427 6.08111,9.426297 0.0179,2.862754 -0.5293,4.474784 -2.2638,6.66908 -1.47836,1.87027 -4.98809,3.91426 -6.72116,3.91426 -1.18854,0 -1.87262,0.77795 -5.3967,6.1373 -5.62602,8.55593 -10.53848,17.85012 -13.72406,25.96547 -1.67071,4.25617 -3.26357,9.99971 -2.9251,10.54735 0.10925,0.17678 1.05225,0.80317 2.09554,1.39197 3.50954,1.98066 4.81211,4.35312 4.79812,8.73911 -0.01,2.98825 -0.75611,4.76659 -2.75934,6.57274 -0.80644,0.7271 -1.46625,1.42614 -1.46625,1.55341 0,0.12728 0.80146,1.07884 1.78102,2.11458 3.25264,3.43919 4.83168,8.36999 4.18245,13.06035 -0.40077,2.89531 -1.17197,4.78289 -3.03979,7.4401 -0.85329,1.21391 -1.46354,2.34932 -1.35612,2.52312 0.10742,0.17381 1.27639,0.64439 2.59771,1.04573 4.24446,1.28921 6.03995,3.05056 6.78931,6.66023 1.0239,4.9321 -1.27997,13.6933 -5.11959,19.46892 -1.84621,2.77709 -4.9768,5.84334 -6.70187,6.56412 -3.40986,1.42473 -7.4695,0.009 -8.9391,-3.1175 -0.41517,-0.88325 -0.90005,-1.69564 -1.07751,-1.80531 -0.17747,-0.10968 -1.88909,0.53428 -3.80361,1.43102 -8.11536,3.80112 -16.52313,6.3252 -26.94068,8.08779 -3.98051,0.67348 -19.03745,0.97989 -23.636109,0.481 z"
       id="path8694"
       inkscape:connector-curvature="0" />
  </g>
  <g
     inkscape:label="Copper"
     inkscape:groupmode="layer"
     id="layer1"
     style="display:inline">
    <path
       style="display:inline;fill:#fa9536;fill-opacity:1;stroke-width:0.35277778"
       d="m 157.9193,139.12915 c 2.89689,-8.73957 8.27593,-19.58179 14.60877,-29.44607 1.59204,-2.47983 3.14874,-4.90566 3.45932,-5.39073 0.31059,-0.48507 -0.94343,0.45199 -2.78669,2.08236 -5.9042,5.22226 -9.99837,7.44745 -13.6832,7.43684 -3.89919,-0.0112 -6.55857,-2.72896 -7.51071,-7.67551 -0.92091,-4.78424 -0.35203,-13.64975 1.43019,-22.288258 0.37841,-1.834166 0.63763,-3.385224 0.57606,-3.446798 -0.0616,-0.06157 -1.07405,1.625198 -2.24995,3.748381 -5.93134,10.709545 -12.41442,18.314965 -17.72073,20.788475 -8.04868,3.75188 -14.48087,-2.26638 -19.73048,-18.46077 -1.65724,-5.112374 -3.6141,-13.216279 -4.10664,-17.006743 l -0.23874,-1.8373 1.9078,-0.843721 c 5.2384,-2.316667 6.00439,-8.321015 1.49986,-11.756789 -1.15192,-0.878612 -1.63273,-1.011001 -3.67177,-1.011001 -1.96923,0 -2.58196,0.155963 -3.81285,0.970532 -2.56473,1.697259 -3.62074,5.247981 -2.41639,8.124826 0.61787,1.475893 3.03409,3.643435 4.39453,3.942238 0.58769,0.129076 1.15355,0.456284 1.25748,0.727128 0.10394,0.270844 -0.35562,3.15833 -1.02123,6.416637 -2.53555,12.411988 -5.55097,20.974383 -9.368609,26.602523 -3.5975,5.30361 -8.02197,6.58881 -13.46238,3.91051 -5.29326,-2.60587 -12.47641,-11.11178 -18.10721,-21.441621 -0.88781,-1.628708 -1.73413,-3.035409 -1.8807,-3.125999 -0.14658,-0.09059 0.17687,2.090074 0.71878,4.845924 1.94072,9.869296 2.22998,17.765826 0.81424,22.227176 -1.24679,3.92893 -4.17546,6.23119 -7.91736,6.22392 -3.97678,-0.008 -7.81179,-2.03436 -12.98101,-6.85991 -2.56852,-2.39774 -3.22191,-2.87273 -2.66904,-1.94027 0.40265,0.67909 1.99067,3.29847 3.52894,5.82083 8.18648,13.42374 13.54455,24.71029 14.44466,30.42708 0.12984,0.82462 0.37119,1.49931 0.53633,1.49931 0.16515,0 1.48054,-0.39621 2.92309,-0.88046 3.44586,-1.15674 10.17603,-2.82315 14.14898,-3.50334 16.6009,-2.84216 40.261789,-2.7749 56.973609,0.16195 5.53924,0.97344 13.69634,2.97948 17.10973,4.20772 1.55222,0.55853 2.99067,1.02833 3.19655,1.04399 0.20588,0.0157 1.01893,-1.91622 1.80677,-4.29306 z"
       id="path8680"
       inkscape:connector-curvature="0" />
    <path
       style="display:inline;fill:#fa9536;fill-opacity:1;stroke-width:0.35277778"
       d="m 184.83847,98.473534 c 1.45928,-0.754634 2.12056,-1.878114 2.12056,-3.602734 0,-2.03876 -1.36277,-3.59735 -3.38216,-3.86815 -3.58644,-0.48094 -5.9057,3.06958 -4.02262,6.15814 1.10129,1.806304 3.28211,2.348074 5.28422,1.312744 z"
       id="path8674"
       inkscape:connector-curvature="0" />
    <path
       style="display:inline;fill:#fa9536;fill-opacity:1;stroke-width:0.35277778"
       d="m 38.595101,98.295124 c 0.67797,0 1.96114,-2.631554 1.96114,-4.021964 0,-0.95995 -0.29525,-1.60225 -1.18067,-2.5684 -1.04486,-1.14014 -1.37572,-1.28834 -2.87627,-1.28834 -1.50055,0 -1.83141,0.1482 -2.87627,1.28834 -1.60158,1.74762 -1.63779,3.57575 -0.10539,5.32105 1.14333,1.302184 2.00701,1.636414 3.64312,1.409794 0.55783,-0.0773 1.20328,-0.14048 1.43434,-0.14048 z"
       id="path8672"
       inkscape:connector-curvature="0" />
    <path
       style="display:inline;fill:#fa9536;fill-opacity:1;stroke-width:0.35277778"
       d="m 158.63098,78.8408 c 1.63026,-0.497219 3.18628,-2.42842 3.46746,-4.303532 0.30253,-2.01739 -0.69409,-4.376311 -2.34702,-5.555204 -1.60113,-1.141948 -4.72554,-1.19818 -6.19221,-0.111445 -1.69654,1.257052 -2.58628,2.889298 -2.55872,4.694038 0.032,2.098687 0.22444,2.537224 1.9179,4.371737 1.32351,1.433742 1.5047,1.517643 2.9962,1.387369 0.87312,-0.07626 2.0955,-0.293595 2.71639,-0.482963 z"
       id="path8670"
       inkscape:connector-curvature="0" />
    <path
       style="display:inline;fill:#fa9536;fill-opacity:1;stroke-width:0.35277778"
       d="m 66.223721,77.922209 c 1.84537,-1.725302 2.27195,-2.619429 2.25562,-4.727862 -0.0175,-2.257803 -1.03749,-3.909997 -3.00055,-4.860302 -1.85407,-0.897539 -3.14442,-0.912675 -5.02428,-0.05894 -3.7378,1.697524 -4.19258,7.120755 -0.80864,9.642844 0.50686,0.377769 1.77686,0.811121 2.82222,0.963002 1.04536,0.151882 1.99966,0.295956 2.12065,0.32016 0.121,0.0242 0.85674,-0.5513 1.63498,-1.278904 z"
       id="path7337"
       inkscape:connector-curvature="0" />
  </g>
  <g
     inkscape:groupmode="layer"
     id="layer2"
     inkscape:label="Silkscreen"
     style="display:inline">
    <path
       style="display:inline;fill:#ffffff;stroke-width:1.33333337"
       d="m 265.07422,577.02734 c -2.54172,-0.01 -5.17394,0.082 -7.89844,0.27539 -12.13319,0.86125 -29.53849,5.63648 -36.76562,10.08789 -4.73651,2.91738 -6.54839,8.34414 -5.19532,15.55665 1.06984,5.70262 2.99888,5.81637 16.63477,0.98046 8.00855,-2.84016 13.13831,-3.68708 24.76758,-4.08593 13.2918,-0.45589 15.22107,-0.21388 20.58789,2.58203 8.59249,4.47624 10.87097,8.38358 12.48437,21.40625 1.68582,13.6069 0.9666,16.28237 -4.08984,15.20898 -30.31332,-6.43491 -53.21609,-2.93495 -66.75977,10.20117 -3.17718,3.0816 -7.02704,8.00222 -8.55468,10.93555 -3.51621,6.75175 -4.72397,23.47147 -2.31641,32.07031 5.68475,20.304 27.43665,31.02852 52.25,25.76368 8.98632,-1.90674 18.4122,-6.64813 24.94141,-12.54688 2.81257,-2.54098 5.73405,-4.62109 6.49218,-4.62109 0.7581,0 2.96327,2.70434 4.90039,6.00976 1.93713,3.30543 4.98531,6.96901 6.77344,8.14063 3.07695,2.01607 3.62164,1.91991 10.17969,-1.78516 10.32892,-5.83548 10.95974,-7.41863 6.77539,-17.03125 -3.40539,-7.82313 -3.50283,-8.85418 -4.36328,-46.66601 -0.99349,-43.65918 -1.57778,-46.72682 -10.9043,-57.32227 -8.83395,-10.03592 -22.14744,-15.09014 -39.93945,-15.16016 z m -1.94727,77.67578 c 3.46619,0.005 7.24349,0.24783 11.33594,0.73047 6.95633,0.82043 13.49949,2.20008 14.54102,3.06446 2.06868,1.71685 1.35056,13.98953 -1.2168,20.80273 -1.85461,4.92163 -8.82156,11.91353 -15.16992,15.22266 -7.82461,4.07864 -25.15634,4.7681 -30.77344,1.22461 -5.97245,-3.7677 -8.9917,-11.00765 -8.26172,-19.81055 1.18451,-14.28333 10.8275,-21.25877 29.54492,-21.23438 z"
       id="path8688"
       transform="scale(0.26458333)"
       inkscape:connector-curvature="0" />
    <path
       style="display:inline;fill:#ffffff;stroke-width:0.35277778"
       d="m 155.67484,189.84264 c 5.85579,-1.52524 9.04841,-5.2739 9.05575,-10.63293 0.003,-2.06959 -0.17126,-2.85395 -0.97874,-4.40972 -1.35089,-2.60277 -3.64649,-4.05229 -9.42476,-5.9511 -5.44891,-1.79059 -6.91715,-2.48533 -7.90416,-3.74011 -1.48772,-1.89133 -0.6845,-4.85301 1.62681,-5.99855 2.11936,-1.0504 7.95216,-0.901 11.24647,0.28807 3.15308,1.13808 3.67393,0.92525 3.67393,-1.50126 0,-2.7243 -1.47606,-3.78974 -6.61156,-4.77233 -5.85905,-1.12102 -10.77757,-0.0885 -14.29641,3.00103 -3.94902,3.46728 -4.25027,9.50495 -0.67278,13.48399 1.94317,2.16126 2.85421,2.62882 9.14468,4.69314 3.9651,1.30121 5.29683,1.90453 6.30706,2.8573 1.22016,1.15075 1.27231,1.29445 1.10431,3.04278 -0.31308,3.25833 -2.56204,4.5172 -8.0763,4.52076 -2.27606,10e-4 -3.79322,-0.22742 -5.99722,-0.9048 -4.13298,-1.27023 -4.9124,-1.39056 -5.27713,-0.8147 -0.50856,0.80294 -0.35886,3.2716 0.25121,4.14259 1.77148,2.52914 11.49109,4.08614 16.82884,2.69584 z"
       id="path8684"
       inkscape:connector-curvature="0" />
    <path
       style="display:inline;fill:#ffffff;stroke-width:0.35277778"
       d="m 104.51881,188.67983 c 0.33056,-0.36526 1.69654,-5.31072 3.23682,-11.71868 3.33118,-13.85862 3.34521,-13.90992 3.70309,-13.5352 0.25346,0.26538 2.83184,10.54797 5.30723,21.16525 1.07947,4.62999 1.17037,4.72171 4.67274,4.71519 3.09553,-0.006 3.46593,-0.11923 4.05657,-1.24271 0.49615,-0.94375 10.31099,-32.39253 10.31099,-33.03855 0,-0.9851 -0.85607,-1.34389 -3.20647,-1.34389 -3.88845,0 -3.1277,-1.80662 -8.9974,21.36703 -1.21155,4.7832 -1.68753,6.14024 -2.02966,5.78664 -0.0884,-0.0914 -1.38213,-5.40492 -2.8749,-11.80784 -1.49276,-6.40292 -2.86234,-12.23117 -3.04352,-12.95167 -0.4661,-1.85363 -1.42092,-2.39416 -4.22913,-2.39416 -1.72022,0 -2.55242,0.1658 -3.0986,0.61736 -0.6027,0.49827 -1.32473,3.06141 -3.74318,13.28788 -1.64804,6.96879 -3.07584,12.74993 -3.1729,12.84699 -0.0971,0.0971 -0.25708,0.0959 -0.35561,-0.003 -0.0985,-0.0985 -1.455709,-5.24468 -3.015939,-11.43588 -3.36179,-13.34005 -3.71844,-14.50728 -4.5723,-14.96425 -1.07188,-0.57365 -5.47779,-0.43857 -5.9943,0.18378 -0.45938,0.55353 -0.0738,1.99498 4.95326,18.5168 0.9741,3.20146 2.41556,7.96396 3.20325,10.58333 0.7877,2.61938 1.68133,5.04031 1.98585,5.37986 0.8144,0.90808 6.079179,0.89695 6.904109,-0.0146 z"
       id="path8682"
       inkscape:connector-curvature="0" />
    <path
       style="display:inline;fill:#ffffff;fill-opacity:1;stroke-width:0.35277778"
       d="m 115.71081,131.04204 c -2.90145,-0.83246 -4.57309,-3.17315 -4.86161,-6.80737 -0.45355,-5.71305 2.44319,-9.00621 7.92208,-9.00621 2.10071,0 2.70016,0.12908 3.27664,0.70556 0.73165,0.73165 0.85732,1.31068 0.49142,2.2642 -0.16522,0.43056 -0.74941,0.55921 -2.55764,0.56322 -1.28893,0.003 -2.74038,0.20571 -3.22545,0.45077 -1.94425,0.98227 -2.30166,5.86938 -0.55685,7.6142 0.77043,0.77042 1.18678,0.8736 3.62406,0.89804 l 2.75362,0.0276 v 1.41111 c 0,1.29731 -0.0996,1.44507 -1.23472,1.83217 -1.48437,0.5062 -3.95852,0.52671 -5.63155,0.0467 z"
       id="path8678"
       inkscape:connector-curvature="0" />
    <path
       style="display:inline;fill:#ffffff;fill-opacity:1;stroke-width:0.35277778"
       d="m 98.071441,130.4211 c -0.21497,-0.40167 -0.36519,-3.43876 -0.36519,-7.38314 0,-7.28581 0.13336,-7.8095 1.98867,-7.8095 1.860429,0 2.244359,0.52925 2.248209,3.09922 l 0.004,2.36883 2.5607,-2.73402 c 2.27789,-2.43208 2.70129,-2.73403 3.8338,-2.73403 0.70117,0 1.47038,0.23768 1.7122,0.52905 0.52247,0.62955 0.45066,0.7444 -2.7521,4.40134 -1.91444,2.18592 -2.16091,2.61978 -1.77551,3.12547 0.24613,0.32295 1.53526,1.90045 2.86473,3.50553 2.67178,3.22567 2.86959,4.07179 0.99391,4.25141 -2.0243,0.19384 -2.6379,-0.17743 -4.81213,-2.91165 -1.15695,-1.45492 -2.2226,-2.65099 -2.36812,-2.65795 -0.14552,-0.007 -0.26458,1.06685 -0.26458,2.38624 0,1.39544 -0.17708,2.57597 -0.42333,2.82223 -0.70363,0.70363 -3.022949,0.52923 -3.444819,-0.25903 z"
       id="path8676"
       inkscape:connector-curvature="0" />
    <path
       style="display:inline;fill:#ffffff;stroke-width:0.35277778"
       d="m 122.04792,223.35412 c 12.92753,-2.00857 24.7355,-6.32362 33.80201,-12.35244 2.70824,-1.80086 3.30974,-2.72099 2.38393,-3.6468 -0.5321,-0.53209 -0.74085,-0.512 -2.77028,0.26663 -11.2638,4.3216 -19.82335,6.49227 -32.35733,8.20569 -4.399,0.60136 -19.77387,0.59322 -24.870839,-0.0132 -15.37624,-1.8293 -29.75867,-6.15651 -42.43676,-12.76786 -4.62068,-2.40958 -5.71741,-2.80719 -5.71741,-2.07283 0,0.89264 6.35797,5.9576 12.03323,9.58607 10.73465,6.86318 23.77541,11.56005 35.94456,12.9461 1.84326,0.20994 3.907009,0.44575 4.586109,0.52403 2.82464,0.32555 15.88687,-0.12916 19.40278,-0.67543 z"
       id="path8692"
       inkscape:connector-curvature="0" />
    <path
       style="display:inline;fill:#ffffff;stroke-width:0.35277778"
       d="m 163.21986,217.40324 c 3.44549,-3.76992 6.24245,-10.92522 6.03029,-15.42695 -0.1058,-2.2448 -0.11429,-2.2614 -1.50437,-2.93982 -2.02652,-0.98904 -7.93907,-1.18503 -11.86458,-0.39328 -3.50121,0.70616 -7.49422,2.53131 -7.67531,3.50828 -0.0976,0.52646 0.0151,0.61399 0.52917,0.41118 0.35922,-0.14171 3.43126,-0.33589 6.82675,-0.43151 5.50818,-0.15513 6.30476,-0.10439 7.3904,0.47076 0.79079,0.41894 1.31701,1.01515 1.50304,1.70296 0.39959,1.4774 -0.52844,5.84737 -2.21532,10.43166 -1.97398,5.36448 -1.83395,5.74554 0.97993,2.66672 z"
       id="path8690"
       inkscape:connector-curvature="0" />
  </g>
</svg>
